<svg width="720" height="520" viewBox="0 0 720 520" fill="none" xmlns="http://www.w3.org/2000/svg" role="img" aria-labelledby="title desc">
  <title id="title">Mapa estilizado de uma rota sustentavel</title>
  <desc id="desc">Ilustracao com rota, paisagem, transporte publico e pontos verdes.</desc>
  <rect width="720" height="520" fill="#F3F8F1"/>
  <path d="M0 347C104 311 202 327 308 367C421 410 546 412 720 344V520H0V347Z" fill="#DDEBDD"/>
  <path d="M0 393C107 370 204 377 325 421C443 464 565 462 720 401V520H0V393Z" fill="#C8E0CB"/>
  <path d="M84 115C157 78 234 82 300 121C372 164 441 162 520 118C581 84 651 87 720 118V0H0V144C25 141 53 131 84 115Z" fill="#B9DCC6"/>
  <circle cx="585" cy="102" r="46" fill="#FFD166"/>
  <path d="M115 406C176 327 247 289 326 292C427 295 486 213 581 158" stroke="#1F7A4D" stroke-width="18" stroke-linecap="round" stroke-dasharray="2 34"/>
  <path d="M112 407C185 332 251 310 323 319C424 331 492 239 596 159" stroke="#0C6A8F" stroke-width="6" stroke-linecap="round"/>
  <circle cx="112" cy="407" r="18" fill="#1F7A4D"/>
  <circle cx="596" cy="159" r="18" fill="#1F7A4D"/>
  <path d="M267 201H415C433 201 448 216 448 234V289C448 307 433 322 415 322H267C249 322 234 307 234 289V234C234 216 249 201 267 201Z" fill="#FFFFFF" stroke="#1F7A4D" stroke-width="8"/>
  <path d="M260 231H422V274H260V231Z" fill="#D9EEF7"/>
  <path d="M281 231V274M323 231V274M365 231V274M407 231V274" stroke="#0C6A8F" stroke-width="4"/>
  <circle cx="286" cy="323" r="18" fill="#18211C"/>
  <circle cx="397" cy="323" r="18" fill="#18211C"/>
  <path d="M178 190L217 124L257 190H178Z" fill="#80B891"/>
  <path d="M500 282L545 205L591 282H500Z" fill="#6EA57E"/>
  <path d="M88 276L126 214L165 276H88Z" fill="#93C49C"/>
  <rect x="208" y="190" width="20" height="58" rx="10" fill="#7A5C43"/>
  <rect x="535" y="282" width="20" height="60" rx="10" fill="#7A5C43"/>
  <rect x="118" y="276" width="18" height="52" rx="9" fill="#7A5C43"/>
</svg>
